<svg xmlns="http://www.w3.org/2000/svg" version="1.1" xmlns:xlink="http://www.w3.org/1999/xlink" xmlns:svgjs="http://svgjs.dev/svgjs" width="1500" height="1500" viewBox="0 0 1500 1500"><rect width="1500" height="1500" fill="#8abcd7"></rect><g transform="matrix(0.6666666666666666,0,0,0.6666666666666666,249.39393939393938,614.6429843501285)"><svg viewBox="0 0 396 107" data-background-color="#8abcd7" preserveAspectRatio="xMidYMid meet" height="405" width="1500" xmlns="http://www.w3.org/2000/svg" xmlns:xlink="http://www.w3.org/1999/xlink"><g id="tight-bounds" transform="matrix(1,0,0,1,0.2400000000000091,0.1414839797639047)"><svg viewBox="0 0 395.52 106.71703204047218" height="106.71703204047218" width="395.52"><g><svg viewBox="0 0 395.52 106.71703204047218" height="106.71703204047218" width="395.52"><g><svg viewBox="0 0 395.52 106.71703204047218" height="106.71703204047218" width="395.52"><g id="textblocktransform"><svg viewBox="0 0 395.52 106.71703204047218" height="106.71703204047218" width="395.52" id="textblock"><g><svg viewBox="0 0 395.52 106.71703204047218" height="106.71703204047218" width="395.52"><g transform="matrix(1,0,0,1,0,0)"><svg width="395.52" viewBox="1.7 -35.5 148.23000000000002 40" height="106.71703204047218" data-palette-color="#ffffff"><path d="M9.8 0.5Q5.85 0.5 3.78-1.75 1.7-4 1.7-8.1L1.7-8.1 1.7-26.9Q1.7-31 3.78-33.25 5.85-35.5 9.8-35.5L9.8-35.5Q13.75-35.5 15.83-33.25 17.9-31 17.9-26.9L17.9-26.9 17.9-23.2 12.7-23.2 12.7-27.25Q12.7-30.5 9.95-30.5L9.95-30.5Q7.2-30.5 7.2-27.25L7.2-27.25 7.2-7.7Q7.2-4.5 9.95-4.5L9.95-4.5Q12.7-4.5 12.7-7.7L12.7-7.7 12.7-13.05 17.9-13.05 17.9-8.1Q17.9-4 15.83-1.75 13.75 0.5 9.8 0.5L9.8 0.5ZM29.25 0.5Q25.2 0.5 23.05-1.8 20.9-4.1 20.9-8.3L20.9-8.3 20.9-26.7Q20.9-30.9 23.05-33.2 25.2-35.5 29.25-35.5L29.25-35.5Q33.3-35.5 35.45-33.2 37.6-30.9 37.6-26.7L37.6-26.7 37.6-8.3Q37.6-4.1 35.45-1.8 33.3 0.5 29.25 0.5L29.25 0.5ZM29.25-4.5Q32.1-4.5 32.1-7.95L32.1-7.95 32.1-27.05Q32.1-30.5 29.25-30.5L29.25-30.5Q26.4-30.5 26.4-27.05L26.4-27.05 26.4-7.95Q26.4-4.5 29.25-4.5L29.25-4.5ZM49.3 0.5Q45.3 0.5 43.2-1.78 41.1-4.05 41.1-8.3L41.1-8.3 41.1-35 46.6-35 46.6-7.9Q46.6-6.1 47.32-5.3 48.05-4.5 49.4-4.5L49.4-4.5Q50.75-4.5 51.47-5.3 52.2-6.1 52.2-7.9L52.2-7.9 52.2-35 57.5-35 57.5-8.3Q57.5-4.05 55.4-1.78 53.3 0.5 49.3 0.5L49.3 0.5ZM61.39 0L61.39-35 69.54-35Q73.79-35 75.74-33.02 77.69-31.05 77.69-26.95L77.69-26.95 77.69-24.8Q77.69-19.35 74.09-17.9L74.09-17.9 74.09-17.8Q76.09-17.2 76.92-15.35 77.74-13.5 77.74-10.4L77.74-10.4 77.74-4.25Q77.74-2.75 77.84-1.83 77.94-0.9 78.34 0L78.34 0 72.74 0Q72.44-0.85 72.34-1.6 72.24-2.35 72.24-4.3L72.24-4.3 72.24-10.7Q72.24-13.1 71.47-14.05 70.69-15 68.79-15L68.79-15 66.89-15 66.89 0 61.39 0ZM66.89-20L68.89-20Q70.54-20 71.37-20.85 72.19-21.7 72.19-23.7L72.19-23.7 72.19-26.4Q72.19-28.3 71.52-29.15 70.84-30 69.39-30L69.39-30 66.89-30 66.89-20ZM88.69 0.5Q84.69 0.5 82.64-1.78 80.59-4.05 80.59-8.3L80.59-8.3 80.59-10.3 85.79-10.3 85.79-7.9Q85.79-4.5 88.64-4.5L88.64-4.5Q90.04-4.5 90.77-5.33 91.49-6.15 91.49-8L91.49-8Q91.49-10.2 90.49-11.88 89.49-13.55 86.79-15.9L86.79-15.9Q83.39-18.9 82.04-21.33 80.69-23.75 80.69-26.8L80.69-26.8Q80.69-30.95 82.79-33.23 84.89-35.5 88.89-35.5L88.89-35.5Q92.84-35.5 94.87-33.23 96.89-30.95 96.89-26.7L96.89-26.7 96.89-25.25 91.69-25.25 91.69-27.05Q91.69-28.85 90.99-29.68 90.29-30.5 88.94-30.5L88.94-30.5Q86.19-30.5 86.19-27.15L86.19-27.15Q86.19-25.25 87.22-23.6 88.24-21.95 90.94-19.6L90.94-19.6Q94.39-16.6 95.69-14.15 96.99-11.7 96.99-8.4L96.99-8.4Q96.99-4.1 94.87-1.8 92.74 0.5 88.69 0.5L88.69 0.5ZM100.14 0L100.14-35 115.14-35 115.14-30 105.64-30 105.64-20.75 113.19-20.75 113.19-15.75 105.64-15.75 105.64-5 115.14-5 115.14 0 100.14 0ZM125.54 0.5Q121.54 0.5 119.49-1.78 117.44-4.05 117.44-8.3L117.44-8.3 117.44-10.3 122.64-10.3 122.64-7.9Q122.64-4.5 125.49-4.5L125.49-4.5Q126.89-4.5 127.61-5.33 128.34-6.15 128.34-8L128.34-8Q128.34-10.2 127.34-11.88 126.34-13.55 123.64-15.9L123.64-15.9Q120.24-18.9 118.89-21.33 117.54-23.75 117.54-26.8L117.54-26.8Q117.54-30.95 119.64-33.23 121.74-35.5 125.74-35.5L125.74-35.5Q129.69-35.5 131.71-33.23 133.74-30.95 133.74-26.7L133.74-26.7 133.74-25.25 128.53-25.25 128.53-27.05Q128.53-28.85 127.84-29.68 127.14-30.5 125.79-30.5L125.79-30.5Q123.04-30.5 123.04-27.15L123.04-27.15Q123.04-25.25 124.06-23.6 125.09-21.95 127.79-19.6L127.79-19.6Q131.24-16.6 132.53-14.15 133.84-11.7 133.84-8.4L133.84-8.4Q133.84-4.1 131.71-1.8 129.59 0.5 125.54 0.5L125.54 0.5ZM134.93 4.5L134.93 0.5 149.93 0.5 149.93 4.5 134.93 4.5Z" opacity="1" transform="matrix(1,0,0,1,0,0)" fill="#ffffff" class="wordmark-text-0" data-fill-palette-color="primary" id="text-0"></path></svg></g></svg></g></svg></g></svg></g></svg></g><defs></defs></svg><rect width="395.52" height="106.71703204047218" fill="none" stroke="none" visibility="hidden"></rect></g></svg></g></svg>